<svg aria-hidden="true" style="position:absolute;width:0;height:0" xmlns="http://www.w3.org/2000/svg" overflow="hidden"><defs><symbol id="icon-check" viewBox="0 0 39 32"><path fill="var(--color1, #fff)" d="M37.771 5.9c0-.636-.244-1.272-.682-1.729L33.775.713c-.439-.458-1.048-.712-1.657-.712S30.9.255 30.461.713L14.475 17.421 7.311 9.918c-.439-.458-1.048-.712-1.657-.712s-1.218.255-1.657.712L.683 13.377c-.439.458-.682 1.093-.682 1.729s.244 1.271.682 1.729L12.818 29.5c.439.458 1.048.712 1.657.712s1.218-.254 1.657-.712L37.089 7.629a2.52 2.52 0 00.682-1.729z"/></symbol><symbol id="icon-facebook" viewBox="0 0 32 32"><path d="M13.913 11.099v2.203H12.3v2.693h1.613V24h3.315v-8.005h2.224s.21-1.291.31-2.704H17.24v-1.84c0-.277.362-.646.72-.646h1.805V8h-2.456c-3.478 0-3.397 2.696-3.397 3.099z"/><path fill="none" stroke-width="2.08" d="M30.96 16c0 8.262-6.698 14.96-14.96 14.96S1.04 24.262 1.04 16 7.738 1.04 16 1.04 30.96 7.738 30.96 16z"/></symbol><symbol id="icon-android" viewBox="0 0 28 32"><path fill="var(--color1, #fff)" d="M10.639 7.196c-.394 0-.714-.332-.714-.72a.723.723 0 011.447 0c0 .388-.319.72-.733.72zm7.927 0c-.413 0-.733-.332-.733-.72s.319-.72.733-.72c.394 0 .714.332.714.72s-.319.72-.714.72zM3.313 10.592c-1.071 0-1.935.849-1.935 1.882v7.936c0 1.052.864 1.901 1.935 1.901s1.916-.849 1.916-1.901v-7.936c0-1.033-.864-1.882-1.916-1.882zm19.911.351H5.981v12.292c0 1.126.92 2.03 2.066 2.03h1.39l.019 4.189c0 1.052.864 1.901 1.916 1.901 1.071 0 1.935-.849 1.935-1.901v-4.189h2.592v4.189c0 1.052.864 1.901 1.935 1.901s1.935-.849 1.935-1.901v-4.189h1.409a2.038 2.038 0 002.047-2.03V10.943zm-4.358-7.475L20.2 1.05a.266.266 0 00-.094-.369c-.132-.056-.301-.019-.376.111l-1.353 2.436c-1.146-.498-2.423-.775-3.775-.775s-2.63.277-3.776.775L9.474.792C9.399.663 9.23.626 9.098.681a.266.266 0 00-.094.369l1.334 2.418c-2.648 1.329-4.433 3.876-4.433 6.81H23.28c0-2.934-1.785-5.481-4.414-6.81zm8.96 9.006c0-1.052-.864-1.882-1.935-1.882-1.052 0-1.916.83-1.916 1.882v7.936c0 1.052.864 1.901 1.916 1.901 1.071 0 1.935-.849 1.935-1.901v-7.936z"/></symbol><symbol id="icon-apple" viewBox="0 0 27 32"><path fill="var(--color1, #fff)" d="M26.371 22.532c-1.082-.316-2.054-1.053-2.898-2.212s-1.266-2.475-1.266-3.914c0-1.334.404-2.545 1.192-3.633.44-.614 1.137-1.299 2.091-2.071-.624-.737-1.266-1.334-1.908-1.755-1.137-.755-2.44-1.141-3.907-1.141-.899 0-1.963.21-3.173.597-1.211.404-2.091.597-2.623.597-.422 0-1.266-.175-2.531-.527-1.284-.351-2.348-.527-3.247-.527-2.109 0-3.834.843-5.209 2.527C1.516 12.176.819 14.352.819 17.038c0 2.878.917 5.81 2.696 8.829 1.816 3.019 3.632 4.546 5.521 4.546.605 0 1.412-.193 2.421-.597.991-.386 1.871-.58 2.605-.58.752 0 1.687.176 2.77.562 1.1.369 1.944.562 2.568.562 1.559 0 3.137-1.141 4.714-3.44 1.064-1.527 1.798-3.002 2.256-4.388zM19.474 1.943c0-.123-.018-.228-.018-.351-.018-.105-.055-.228-.092-.386-2.128.474-3.668 1.334-4.586 2.598s-1.394 2.773-1.431 4.511c.862-.07 1.486-.175 1.908-.298.66-.21 1.321-.632 1.981-1.264.77-.737 1.339-1.545 1.706-2.422.348-.86.532-1.667.532-2.387z"/></symbol><symbol id="icon-instagram" viewBox="0 0 32 32"><path d="M24.926 7.074a1.703 1.703 0 11-2.872 1.538 1.863 1.863 0 010-.334c.003-.451.181-.883.497-1.205a1.666 1.666 0 01.872-.463 1.705 1.705 0 011.505.463zM22.584 16a6.582 6.582 0 01-4.065 6.083 6.587 6.587 0 01-7.175-1.427 6.583 6.583 0 1111.239-4.657zm-2.043 0a4.542 4.542 0 10-9.084 0 4.542 4.542 0 009.084 0zM32 16A16 16 0 014.687 27.313 16.006 16.006 0 011.218 9.877 16.005 16.005 0 0116 0a16.016 16.016 0 0116 16zm-2.043 0a13.96 13.96 0 00-16.68-13.689A13.961 13.961 0 002.311 13.277 13.956 13.956 0 0016 29.957 13.976 13.976 0 0029.957 16z"/></symbol><symbol id="icon-logo" viewBox="0 0 31 32"><path fill="var(--color1, #fff)" d="M15.755.001L15.642 0a15.82 15.82 0 00-2.316.173c-.015.002-.032.003-.047.006C6.848 1.158 1.694 6.069.347 12.373l-.009.038c-.043.206-.081.414-.116.622-.009.053-.02.105-.028.159-.028.175-.05.352-.071.53-.011.087-.024.173-.033.261-.016.153-.027.307-.038.461-.009.113-.019.225-.026.337-.008.14-.01.282-.014.423-.003.11-.01.219-.011.329l.001.054-.001.057c0 .049.005.097.005.147.002.277.012.553.029.827l.019.279a14.92 14.92 0 00.281 1.96c.015.072.032.143.048.214a13.77 13.77 0 00.25.972c.096.323.199.642.313.955.005.015.012.029.016.044a15.65 15.65 0 00.421 1.021 15.813 15.813 0 00.958 1.804c-.001.017.004.035.003.053.019.029.039.057.056.088l.05.029c.52.814 1.113 1.578 1.77 2.28l.013.014a15.7 15.7 0 002.141 1.906l.034.025c.237.173.48.341.727.502l.084.054c.529.339 1.079.65 1.648.925l.032.015c.259.125.522.24.789.351l.18.072c.233.093.469.18.706.262.057.02.114.041.172.06a15.405 15.405 0 003.716.738c.065.005.129.012.194.016.29.018.583.03.877.032l.113.001c8.564 0 15.581-6.968 15.642-15.534.06-8.628-6.907-15.695-15.533-15.757zm-1.486 30.221c-.216-.02-.431-.046-.644-.076l-.085-.012a16.581 16.581 0 01-.717-.121 14.662 14.662 0 01-.629-.139l-.076-.018a13.241 13.241 0 01-.621-.17l-.069-.02a16.286 16.286 0 01-.614-.2l-.063-.022a14.216 14.216 0 01-.605-.231l-.057-.023c-.201-.082-.4-.17-.596-.261l-.05-.023a14.47 14.47 0 01-.585-.291l-.043-.022c-.194-.103-.385-.21-.574-.321l-.038-.022a14.116 14.116 0 01-.56-.349l-.034-.021a15.563 15.563 0 01-.545-.378l-.028-.02a17.178 17.178 0 01-.529-.404l-.026-.02a14.977 14.977 0 01-1.021-.902l-.025-.024a15.934 15.934 0 01-.464-.473l-.026-.027c-.149-.16-.295-.324-.438-.491l-.014-.017a25.657 25.657 0 006.543 2.096 20.637 20.637 0 003.258 3.004l-.027-.002zM3.136 23.25a14.445 14.445 0 01-.781-1.458l-.04-.088a13.533 13.533 0 01-.287-.675l-.053-.135a13.272 13.272 0 01-.244-.686l-.032-.097a14.584 14.584 0 01-.66-3.438l-.001-.014a24.46 24.46 0 006.095 3.229 17.657 17.657 0 002.925 6.117 24.536 24.536 0 01-6.896-2.712 1.616 1.616 0 00-.027-.043zM1.288 12.767c.034-.168.072-.334.111-.5.014-.059.027-.119.042-.177.036-.143.076-.285.115-.427.024-.082.047-.164.072-.245a15.774 15.774 0 01.221-.673c.037-.104.075-.207.114-.31l.041-.102a22.823 22.823 0 004.805 2.663 17.103 17.103 0 00-.213 2.647c0 1.043.101 2.07.285 3.078a23.358 23.358 0 01-5.874-3.343c.015-.875.109-1.73.272-2.561l.01-.051zm1.167-3.472a14.894 14.894 0 01.649-1.192c.156-.259.321-.513.492-.761.083-.121.171-.24.258-.358.172-.234.35-.465.536-.688.098-.117.199-.23.3-.344.149-.168.301-.332.457-.492.072-.074.142-.149.215-.221a18.747 18.747 0 003.557 1.782 17.372 17.372 0 00-1.924 4.974 21.785 21.785 0 01-4.586-2.6c.016-.034.03-.069.047-.102zm3.827-4.892c.189-.157.38-.311.578-.459.113-.086.229-.167.345-.25.169-.12.339-.236.514-.349.102-.065.203-.132.306-.195.247-.151.497-.295.754-.432.088-.047.179-.092.268-.137.232-.117.466-.229.704-.335.061-.027.122-.057.184-.083a15.09 15.09 0 011.107-.417c.663-.22 1.346-.396 2.048-.52l.097-.017c.366-.062.736-.113 1.109-.147-1.969 1.462-3.598 3.182-4.842 5.085a17.655 17.655 0 01-3.325-1.614l.152-.132zm9.881 7.237c1.984.256 3.522 1.952 3.522 4.004s-1.539 3.748-3.522 4.004V11.64zm-4.606 14.654c-1.519-1.812-2.624-3.85-3.277-6.024a25.09 25.09 0 006.865 1.085v5.264a25.184 25.184 0 01-3.588-.326zm3.588 1.325v1.98a20.238 20.238 0 01-2.525-2.148c.83.096 1.672.152 2.525.168zm-7.164-8.497a16.04 16.04 0 01-.386-3.477c0-.771.059-1.533.167-2.284a23.47 23.47 0 007.384 1.343v5.653a24.082 24.082 0 01-7.165-1.236zm-.046-6.76a16.4 16.4 0 011.952-5.005c1.66.521 3.426.821 5.258.868v5.479a22.446 22.446 0 01-7.21-1.343zm2.507-5.883c1.214-1.797 2.796-3.418 4.702-4.791v5.53a18.17 18.17 0 01-4.702-.739zm5.721 14.178c2.536-.26 4.521-2.409 4.521-5.013s-1.985-4.752-4.521-5.013V6.32c4.915.272 8.835 4.342 8.835 9.324s-3.919 9.052-8.835 9.324v-4.312zm0 9.62v-4.312c5.466-.273 9.833-4.788 9.833-10.32 0-5.533-4.367-10.049-9.833-10.322V1.012c7.882.277 14.182 6.799 14.127 14.736-.055 7.845-6.345 14.255-14.127 14.529z"/></symbol><symbol id="icon-mail" viewBox="0 0 32 32"><path d="M15.996 0C7.23 0 .057 7.132 0 15.9a15.89 15.89 0 004.614 11.342 15.88 15.88 0 0011.283 4.757h.107c8.766 0 15.939-7.132 15.996-15.9.05-8.818-7.081-16.043-16.003-16.1zm12.57 21.774L22.217 16l6.356-5.774a13.705 13.705 0 011.266 5.86 13.726 13.726 0 01-1.273 5.689zM16.082 2.155c4.785.028 8.993 2.496 11.46 6.215L15.996 18.866 4.465 8.384a13.904 13.904 0 0111.617-6.229zM3.427 10.226L9.776 16l-6.363 5.781a13.715 13.715 0 01-1.258-5.867 13.726 13.726 0 011.273-5.689zm12.569 19.619h-.092a13.748 13.748 0 01-9.761-4.117 14.037 14.037 0 01-1.706-2.098l6.868-6.236 3.995 3.627c.199.178.448.27.697.27s.498-.092.697-.27l3.995-3.627 6.853 6.229c-2.488 3.74-6.74 6.222-11.546 6.222z"/></symbol><symbol id="icon-telegram" viewBox="0 0 32 32"><path fill="none" stroke-width="2.08" d="M30.96 16c0 8.262-6.698 14.96-14.96 14.96S1.04 24.262 1.04 16 7.738 1.04 16 1.04 30.96 7.738 30.96 16z"/><path d="M18.565 15.573l-3.594-1.677c-.314-.146-.571.018-.571.365v3.158c0 .347.258.51.571.365l3.592-1.677c.315-.147.315-.387.002-.534zM16 22.08c-7.862 0-8-.709-8-6.24s.138-6.24 8-6.24 8 .709 8 6.24-.138 6.24-8 6.24z"/></symbol></defs></svg>